<?xml version="1.0" encoding="UTF-8"?>
<!DOCTYPE svg PUBLIC "-//W3C//DTD SVG 1.1//EN" "http://www.w3.org/Graphics/SVG/1.1/DTD/svg11.dtd">
<!-- Creator: CorelDRAW 2026 -->
<svg xmlns="http://www.w3.org/2000/svg" xml:space="preserve" width="341.464mm" height="105.057mm" version="1.1" style="shape-rendering:geometricPrecision; text-rendering:geometricPrecision; image-rendering:optimizeQuality; fill-rule:evenodd; clip-rule:evenodd"
viewBox="0 0 38419.81 11820.47"
 xmlns:xlink="http://www.w3.org/1999/xlink"
 xmlns:xodm="http://www.corel.com/coreldraw/odm/2003">
 <defs>
  <style type="text/css">
   <![CDATA[
    .fil1 {fill:#FEFEFE}
    .fil7 {fill:#FEFEFE}
    .fil4 {fill:#000066}
    .fil6 {fill:#47A3FF}
    .fil2 {fill:#FF9900}
    .fil3 {fill:#FFC000}
    .fil0 {fill:#000066;fill-rule:nonzero}
    .fil5 {fill:#47A3FF;fill-rule:nonzero}
   ]]>
  </style>
 </defs>
 <g id="Capa_x0020_1">
  <metadata id="CorelCorpID_0Corel-Layer"/>
  <path class="fil0" d="M4553.24 6047.38l0 1393.22 890.41 0 0 -1012.17 0 -762.1 -426.54 -186.56c0,0 0,0 426.54,-178.62 0,-611.26 0,-1222.53 0,-1829.83l-2521.98 0 0 658.9 0 539.82 0 2770.56 890.42 0 0 -1440.86 314.58 -134.95 426.57 182.59zm2185.86 -2576.06l-890.43 0 0 658.9 0 496.16 0 2814.22 890.43 0c0,-1321.77 0,-2647.51 0,-3969.28zm405.02 3969.28l890.43 0 0 -2953.15 367.9 321.51 373.23 -321.51 0 2953.15 885.1 0 0 -3969.28 -885.1 0 -373.23 321.51 -367.9 -321.51 -890.43 0 0 658.9 0 639.05 0 2671.33zm5438.33 -3969.28l-2516.66 0 0 658.9 0 404.86 0 2905.52c837.11,0 1679.56,0 2516.66,0 0,-456.47 0,-912.94 0,-1369.41l-890.42 381.05 0 329.46 -741.14 0 0 -658.91 1300.97 -555.7 0 -762.1 -1300.97 555.7 0 -1230.47 741.14 0 0 436.61 890.42 -381.04 0 -714.47zm-12582.46 658.9l0 670.8 0 2639.58 890.43 0 0 -1440.86 1626.23 -698.59c0,-611.26 0,-1222.53 0,-1829.83l-2516.67 0 0 658.9zm890.43 0l741.14 0 0 785.92 -741.14 321.51 0 -1107.43zm2921.66 0l741.15 0 0 785.92 -741.15 321.51 0 -1107.43z"/>
  <path class="fil1" d="M18279.35 3365.31l4908.88 0 0 5678.51 -4696.9 2715.32 -106.08 61.33 -105.9 -61.46 -4679.34 -2715.31 0 -5678.39 4679.34 0zm418.58 -3056.81l-0.18 10.12 -0.29 6.75 -0.57 8.3 -0.78 8.11 -0.63 5.48 -1.4 9.62 -0.91 5.43 -1.44 7.45 -1.73 7.88c-1.06,4.53 -2.22,9.02 -3.48,13.5l-2.33 7.9 -2.09 6.48 -3.14 8.78 -2.27 6.01 -2.91 7.04c-2.73,6.47 -5.74,12.84 -8.92,19.11l-3.72 7.11 -4.23 7.45 -4.57 7.62 -2.96 4.67 -4.25 6.4 -4.15 5.93 -3.34 4.59 -5.7 7.35 -3.4 4.22 -4.92 5.82 -4.39 4.95 -4.31 4.64c162.51,308.92 355.06,600.82 569.54,876.27l50.52 64.91 -50.33 65.06c-107.53,139.05 -243.56,358.64 -218.82,544.34 11.62,87.17 62.57,161.95 150.88,183.73 76.39,18.84 151.39,-10.58 194.5,-77.01 83.09,-128.02 32.13,-336.46 -16,-467.02l-20.55 -55.75 375.92 -475.69c-26.94,-45.25 -41.63,-97.45 -41.63,-151.59 0,-163.73 132.8,-296.53 296.53,-296.53 163.72,0 296.52,132.8 296.52,296.53 0,97.63 -47.76,186.43 -123.56,240.92l156.26 594.21 -34.46 41.87c-78.85,95.77 -169.17,237.28 -165.06,367.13 1.5,47.66 19.38,108.39 67.4,128.94 35.51,15.21 66.65,-2.86 88.59,-31.81 64.68,-85.37 55.04,-248.65 40.11,-347.04l-9.52 -62.66 451.51 -338.63c-5.63,-22.15 -8.53,-45.07 -8.53,-68.27 0,-152.51 123.7,-276.21 276.21,-276.21 152.53,0 276.24,123.7 276.24,276.21 0,145.09 -111.94,264.1 -254.15,275.37l-462.85 1427.06 -4212.12 0 -462.86 -1427.06c-142.2,-11.26 -254.14,-130.28 -254.14,-275.37 0,-152.51 123.7,-276.22 276.21,-276.22 152.53,0 276.24,123.71 276.24,276.22 0,23.2 -2.9,46.12 -8.54,68.27l451.5 338.63 -9.51 62.66c-14.93,98.39 -24.57,261.68 40.11,347.04 21.95,28.95 53.08,47.02 88.61,31.81 48,-20.56 65.89,-81.28 67.39,-128.93 4.11,-129.84 -86.21,-271.36 -165.06,-367.13l-34.46 -41.87 156.26 -594.23c-75.85,-54.54 -123.58,-143.38 -123.58,-240.93 0,-163.73 132.82,-296.52 296.54,-296.52 163.72,0 296.53,132.8 296.53,296.52 0,54.14 -14.72,106.34 -41.65,151.6l375.95 475.69 -20.56 55.75c-48.12,130.55 -99.08,339 -15.99,467.02 43.12,66.42 118.11,95.83 194.48,76.99 88.32,-21.77 139.27,-96.55 150.89,-183.71 24.74,-185.69 -111.29,-405.28 -218.82,-544.32l-50.33 -65.06 50.52 -64.91c214.46,-275.46 407.05,-567.36 569.54,-876.29l-4.29 -4.58 -5.45 -6.23 -3.81 -4.5 -5.94 -7.46 -3.83 -5.03 -4.58 -6.31 -3.16 -4.58 -3.99 -6.08 -3.21 -5.12 -4.84 -8.2 -4.14 -7.47 -2.76 -5.28c-3.05,-6 -5.91,-12.1 -8.56,-18.27l-1.47 -3.48 -2.1 -5.16 -2.62 -6.94 -0.86 -2.6 -0.96 -2.37 -3.12 -9.77 -0.28 -1.06 -1.63 -5.34 -0.34 -1.34c-1.11,-3.95 -2.12,-7.93 -3.06,-11.92l-1.9 -8.61 -1.49 -7.79 -1.26 -7.71 -0.96 -6.86 -1.1 -10.25 -0.59 -7.11 -0.35 -5.54 -0.33 -9.96 -0.07 -5.77c0,-411.33 607.6,-411.33 607.6,0z"/>
  <path class="fil2" d="M15847.29 1378.86c94.01,0 170.22,76.22 170.22,170.25 0,38.32 -12.67,73.69 -34.05,102.13l468.7 351.52c-127.93,843.06 789.34,525.67 217.67,-168.68l164.45 -625.32c-81.74,-21.45 -142.06,-95.84 -142.06,-184.32 0,-105.21 85.32,-190.52 190.54,-190.52 105.22,0 190.53,85.31 190.53,190.52 0,60.61 -28.3,114.61 -72.39,149.51l392.68 496.88c-391.16,1060.98 1102.06,832.66 293.86,-212.21 238.3,-306.07 447.58,-628.68 620.81,-971.84 -64.71,-32.28 -109.14,-95.73 -111.73,-168.94l-0.12 -3.27 -0.05 -1.49 -0.06 -4.56c0,-109.24 88.56,-197.81 197.81,-197.81l0 3034.83 -2029 0 -465.26 -1434.45 -0.01 -0.02c-16.55,5.37 -34.22,8.28 -52.56,8.28 -94.02,0 -170.24,-76.22 -170.24,-170.22 0,-94.03 76.22,-170.25 170.24,-170.25zm2693.71 -937.87l-0.45 0.52 -0.56 0.6 0.56 -0.6 0.45 -0.52zm-13.57 13.66l-0.92 0.83 -2.43 2.14 2.43 -2.14 0.92 -0.83zm-43.49 30.13l-3.96 1.98 0 0 3.96 -1.98z"/>
  <path class="fil3" d="M18394.13 110.69c109.24,0 197.81,88.57 197.81,197.81l-0.06 4.56 -0.05 1.49 -0.12 3.26 -0.06 1.15 -0.25 4.13 -0.06 0.64 -0.06 0.73 -0.29 3.25 -0.19 1.91 -0.47 4.07 -0.01 0.15 -0.61 4.32 -0.17 1.1 -0.61 3.66 -0.16 0.9 -0.78 4.07 -0.1 0.47 -0.14 0.63 -0.77 3.52 -0.26 1.17c-0.7,2.94 -1.44,5.84 -2.26,8.73l-0.15 0.53 -1.27 4.25 -0.06 0.19 -1.36 4.23 -0.11 0.33 -1.44 4.1 -0.35 0.96 -1.35 3.56 -0.19 0.47 -0.15 0.39 -1.31 3.21 -0.17 0.39 -0.51 1.19c-1.74,4.08 -3.63,8.1 -5.65,12.05l-0.29 0.56 -1.77 3.36 -0.32 0.6 -0.27 0.48 -1.96 3.49 -0.41 0.71 -1.63 2.76 -0.92 1.53 -0.25 0.41 -1.82 2.91 -0.03 0.05 -2.48 3.76 -0.32 0.47 -2.33 3.36 -0.3 0.43 -2.66 3.62 -0.27 0.36 -2.18 2.86 -0.83 1.06 -2.64 3.29 -0.05 0.06 -2.9 3.42 -0.29 0.34 -2.52 2.85 -0.45 0.52 -0.56 0.6 -2.32 2.5 -0.36 0.37 -0.2 0.2 -2.78 2.86 -0.68 0.68 -3.05 2.98 -0.16 0.16 -3.02 2.79 -0.92 0.84 -2.43 2.14 -0.71 0.62 -3.13 2.66 -0.29 0.25 -3.22 2.59 -1.04 0.82 -2.68 2.05 -0.54 0.42 -0.28 0.21 -2.76 2.01 -0.36 0.25 -1.18 0.84 -2.66 1.83 -0.84 0.57 -3.44 2.27 -0.21 0.14 -0.71 0.44 -2.64 1.65 -1.55 0.95 -2.55 1.51 -0.7 0.41 -0.43 0.25 -2.99 1.68 -0.75 0.42 -0.62 0.33 -3.3 1.73 -0.55 0.28 -3.96 1.98c173.24,343.16 382.53,665.76 620.81,971.83 -808.21,1044.89 685.01,1273.21 293.86,212.23l392.68 -496.88c-44.09,-34.9 -72.39,-88.9 -72.39,-149.5 0,-105.22 85.31,-190.53 190.54,-190.53 105.22,0 190.53,85.31 190.53,190.53 0,88.47 -60.32,162.87 -142.06,184.31l164.45 625.32c-571.67,694.35 345.61,1011.75 217.67,168.68l468.7 -351.52c-21.38,-28.44 -34.05,-63.81 -34.05,-102.13 0,-94.02 76.22,-170.24 170.24,-170.24 94.01,0 170.22,76.22 170.22,170.24 0,94.01 -76.22,170.22 -170.22,170.22 -18.35,0 -36.02,-2.91 -52.57,-8.28l0 0.01 -465.26 1434.46 -2029.02 0 0 -3034.83z"/>
  <polygon class="fil4" points="13706.01,3471.31 18385.34,3471.31 18385.34,11697.98 13706.01,8982.67 "/>
  <g id="_1945740136272">
   <path class="fil5" d="M29221.56 9243.88l844.8 0c0,-241.16 0,-483.66 0,-724.83l-148.55 -63.94 148.55 -65.29c0,-159.9 0,-318.44 0,-478.33l-844.8 0 0 221.18 0 170.55 0 940.67zm298.91 -221.18l0 -397.05 98.44 -42.63 150.34 63.95 0 375.73 -248.78 0zm0 -654.21l0 -235.83 248.78 0 0 129.23 -248.78 106.6zm909.32 -457.01l0 221.18 0 890.04 0 221.18 298.9 0 248.78 0 297.12 0 0 -221.18 0 -890.04 0 -221.18 -297.12 0 0 221.18 0 890.04 -248.78 0 0 -890.04 0 -221.18 -298.9 0zm1507.12 0l-298.9 0 0 221.18 0 166.54 0 944.68 298.9 0c0,-443.69 0,-888.72 0,-1332.4zm909.32 999.3l298.9 -127.91c0,153.22 0,307.78 0,461.01l-844.78 0 0 -979.31 0 -131.91 0 -221.18 297.11 0c0,370.41 0,740.82 0,1111.22l248.78 0c0,-37.31 0,-74.61 0,-111.92zm1208.23 111.92l0 -890.04 -248.79 0 0 890.04 248.79 0zm-545.9 -1111.22c211.19,0 422.39,0 635.38,0l209.41 90.61c0,383.73 0,767.45 0,1151.19l-209.41 90.61c-212.99,0 -424.19,0 -635.38,0l0 -960.66 0 -150.56 0 -221.18zm2053 0l-844.78 0 0 221.18 0 135.91 0 975.31c281.01,0 563.79,0 844.78,0 0,-153.22 0,-306.45 0,-459.68l-298.9 127.92 0 110.58 -248.77 0 0 -221.17 436.7 -186.55 0 -255.81 -436.7 186.54 0 -413.04 248.77 0 0 146.56 298.9 -127.91 0 -239.84zm662.33 221.18l248.79 0 0 263.81 -248.79 107.92 0 -371.74zm248.79 643.55l0 467.67 298.9 0 0 -339.76 0 -255.81 -143.2 -62.64c0,0 0,0 143.2,-59.95 0,-205.19 0,-410.39 0,-614.24l-846.59 0 0 221.18 0 181.19 0 930.03 298.9 0 0 -483.66 105.6 -45.31 143.2 61.3zm662.32 246.49l0 221.18 844.8 0 0 -981.99 -545.9 234.51 0 -363.75 248.78 0 0 127.91 297.12 -127.91 0 -221.18 -844.8 0 0 221.18 0 101.26 0 646.21 547.68 -234.5 0 377.07 -248.78 0 0 -127.91 -298.9 127.91z"/>
   <path class="fil5" d="M38419.81 3471.31l-2516.67 0 0 658.9 0 404.86 0 2905.52c837.12,0 1679.56,0 2516.67,0 0,-456.47 0,-912.94 0,-1369.41l-890.43 381.05 0 329.46 -741.12 0 0 -658.91 1300.97 -555.7 0 -762.1 -1300.97 555.7 0 -1230.47 741.12 0 0 436.61 890.43 -381.04 0 -714.47zm-14214.01 3310.38l0 658.9 2516.67 0 0 -2925.37 -1626.23 698.59 0 -1083.61 741.14 0 0 381.05 885.1 -381.05 0 -658.9 -2516.67 0 0 658.9 0 301.66 0 1925.1 1631.57 -698.59 0 1123.32 -741.14 0 0 -381.05 -890.43 381.05zm2921.68 -2651.48l815.78 0 0 3310.38 890.42 0 0 -3310.38 810.46 0 0 -658.9 -2516.66 0 0 658.9zm2921.66 0l0 583.48 0 2726.9 2521.98 0 0 -3969.28 -2521.98 0 0 658.9zm890.42 0l741.15 0 0 2651.48 -741.15 0 0 -2651.48zm2036.59 3310.38l890.42 0 0 -2953.15 741.15 639.05 0 2314.1 890.41 0c0,-1321.77 0,-2647.51 0,-3969.28l-890.41 0 0 643.02 -741.15 -643.02 -890.42 0 0 658.9 0 448.53 0 2861.85z"/>
   <polygon class="fil6" points="18385.34,3471.31 23082.24,3471.31 23082.24,8982.67 18385.34,11697.98 "/>
  </g>
  <g id="_1945740139920">
   <path class="fil7" d="M20708.55 8860.82l6.76 -1542.09 1047.65 -626.48 2 1538.95 -1056.41 629.62zm6.26 -2394.1l0.63 -1700.9 1048.11 2.26 1.2 669.3 -0.05 403.46 -1049.9 625.89zm-686.22 3614.44l1798.2 -1022.96 630.37 -355.29 0.46 -1815.44 -485.16 -318.32 481.1 -279.55 3.26 -2220.31 -2421.41 3.56 -6.82 6008.32z"/>
   <polygon class="fil7" points="18976.39,7338.05 18976.02,9843.38 18385.34,10176.82 17234.64,9509.94 17235.44,10365.01 18385.34,11056.7 19676.14,10297.17 19675.39,6074.05 17934.88,7109.16 17935.6,4763.35 18977.73,4763.06 18980.65,5332.74 19675.68,4918.63 19675.39,4074.43 17238.27,4072.72 17234.34,8374.27 "/>
   <path class="fil7" d="M15144.45 6324.03l1.67 -1548.89 1049.45 -13.91 -4.73 938.99 -1046.39 623.81zm-693.02 2367.19l842.07 503.46 2.09 -810.83 -149.77 -89.07 -0.03 -1147.82 1736.78 -1035.4 0 -2035.06 -2413.56 -3.93 -17.59 4618.64z"/>
  </g>
 </g>
</svg>
